<?xml version="1.0" standalone="no"?>
<!DOCTYPE svg PUBLIC "-//W3C//DTD SVG 20010904//EN"
 "http://www.w3.org/TR/2001/REC-SVG-20010904/DTD/svg10.dtd">
<svg version="1.0" xmlns="http://www.w3.org/2000/svg"
 width="612.000000pt" height="408.000000pt" viewBox="0 0 612.000000 408.000000"
 preserveAspectRatio="xMidYMid meet">

<g transform="translate(0.000000,408.000000) scale(0.100000,-0.100000)"
fill="#000000" stroke="none">
<path d="M1954 3804 c-12 -29 -15 -59 -12 -114 7 -103 41 -175 117 -250 80
-78 145 -104 264 -105 48 0 87 -1 87 -3 0 -1 -21 -12 -47 -23 -52 -22 -139
-28 -214 -15 -42 8 -52 5 -150 -43 -142 -71 -190 -100 -284 -175 -54 -43 -181
-168 -205 -202 -8 -12 -33 -46 -55 -76 -54 -72 -58 -79 -109 -183 -41 -83 -60
-125 -66 -150 -2 -5 -11 -35 -22 -65 -46 -132 -70 -361 -47 -444 12 -42 19
-39 39 14 28 76 84 176 127 229 44 54 51 47 18 -19 -24 -47 -73 -205 -96 -310
-33 -148 -33 -371 0 -515 49 -215 127 -374 246 -500 45 -48 46 -49 41 -20 -33
161 -36 195 -30 258 3 38 10 81 14 95 6 24 8 19 19 -33 25 -128 82 -284 145
-400 62 -113 177 -239 288 -317 66 -46 247 -138 272 -138 7 0 37 -8 67 -19 30
-10 79 -21 109 -25 30 -3 71 -9 90 -12 l35 -5 -35 20 c-37 20 -130 104 -130
116 0 4 -6 13 -13 19 -20 16 -72 110 -56 100 8 -4 39 -27 69 -50 85 -64 240
-125 420 -165 89 -20 132 -24 280 -24 152 1 186 4 260 24 87 24 181 69 212
102 17 17 16 18 -15 24 -88 17 -277 97 -277 117 0 4 -6 8 -13 8 -12 0 -54 40
-133 125 -84 91 -150 269 -161 435 -10 154 62 358 166 470 9 10 29 33 44 51
l28 34 -123 6 c-129 6 -228 29 -294 69 -20 11 -39 20 -45 20 -5 0 -27 12 -48
28 -21 15 -49 34 -61 42 -26 17 -136 126 -163 161 -10 13 -27 40 -38 59 -11
19 -23 42 -28 50 -38 66 -81 239 -80 320 1 38 4 31 19 -45 41 -212 139 -369
305 -491 128 -93 302 -144 490 -144 102 0 226 20 270 42 79 40 298 62 385 38
19 -5 49 -12 66 -14 52 -9 143 -54 237 -118 98 -65 156 -88 230 -88 192 0 341
145 342 335 0 60 -5 81 -37 150 -21 44 -44 106 -52 137 -15 60 -66 160 -85
166 -7 2 -11 -14 -11 -48 0 -28 -7 -80 -16 -115 -19 -76 -15 -95 23 -96 26 0
26 -1 6 -9 -11 -5 -30 -6 -42 -3 -17 4 -21 13 -22 52 0 56 -34 147 -72 190
-32 38 -57 35 -58 -6 -3 -69 -10 -109 -30 -171 -12 -37 -23 -70 -25 -73 -2 -3
-52 7 -111 23 -139 37 -178 44 -292 58 -52 7 -106 16 -120 20 -14 5 -38 11
-53 14 -34 8 -84 50 -104 88 -26 50 -10 52 24 4 18 -25 40 -46 48 -46 8 0 14
-3 14 -8 0 -16 146 -59 159 -47 1 2 -14 16 -35 31 -22 15 -50 41 -64 58 -23
28 -25 38 -23 119 1 74 6 98 29 146 46 95 94 150 191 224 42 31 55 50 31 42
-7 -2 -33 -6 -57 -9 -24 -3 -59 -15 -78 -26 -19 -11 -40 -20 -47 -20 -8 0 -46
-30 -85 -66 -98 -91 -94 -65 8 47 105 117 271 155 526 120 55 -7 106 -15 114
-17 11 -4 13 -29 9 -135 -3 -71 -2 -132 2 -134 4 -3 24 6 44 20 20 14 40 25
44 25 9 1 81 92 98 125 8 15 14 34 14 41 0 21 30 30 41 13 5 -8 9 -54 8 -102
-1 -48 1 -90 4 -93 10 -11 64 25 91 61 16 20 37 62 48 93 11 31 31 70 45 86
41 49 74 132 90 230 15 87 15 93 -3 131 -11 22 -37 51 -61 67 -50 34 -133 113
-133 128 0 15 11 12 45 -10 52 -34 154 -84 160 -78 4 3 1 24 -6 47 -10 32 -24
48 -73 82 -56 38 -128 81 -166 99 -8 4 -30 15 -49 25 -18 10 -48 21 -65 25
-17 5 -56 18 -88 29 -39 14 -99 23 -195 30 -157 10 -234 26 -418 87 -175 57
-289 78 -385 70 -110 -10 -239 -32 -290 -51 -24 -8 -98 -27 -163 -40 -255 -53
-541 -25 -894 86 -35 11 -71 22 -80 24 -10 2 -28 7 -41 11 -19 5 -24 1 -38
-32z m1624 -158 c40 -14 85 -43 125 -77 17 -15 17 -20 4 -52 l-15 -35 -53 14
c-29 8 -73 14 -96 14 -38 0 -45 3 -54 28 -8 19 -8 36 0 58 15 43 15 44 -20 44
-17 0 -28 4 -24 10 9 15 86 12 133 -4z m277 -128 c34 -6 -65 -50 -103 -46
l-33 3 27 31 c24 28 31 30 58 23 17 -4 40 -9 51 -11z"/>
</g>
</svg>
